HIERARCHY
ROOT Hips
{
	OFFSET 0.0 0.0 0.0
	CHANNELS 6 Xposition Yposition Zposition Zrotation Xrotation Yrotation
	JOINT LeftUpLeg
	{
		OFFSET 13.975473 0.0 0.0
		CHANNELS 3 Zrotation Xrotation Yrotation
		JOINT LeftLeg
		{
			OFFSET 0.0 -55.901894 0.0
			CHANNELS 3 Zrotation Xrotation Yrotation
			JOINT LeftFoot
			{
				OFFSET 0.0 -51.243401 0.0
				CHANNELS 3 Zrotation Xrotation Yrotation
				JOINT LeftToeBase
				{
					OFFSET 0.0 -5.274969 19.686443
					CHANNELS 3 Zrotation Xrotation Yrotation
					JOINT EndSite
					{
						OFFSET 0.0 0.0 8.734671
					}
				}
			}
		}
	}
	JOINT RightUpLeg
	{
		OFFSET -13.975473 0.0 0.0
		CHANNELS 3 Zrotation Xrotation Yrotation
		JOINT RightLeg
		{
			OFFSET 0.0 -55.901894 0.0
			CHANNELS 3 Zrotation Xrotation Yrotation
			JOINT RightFoot
			{
				OFFSET 0.0 -51.243401 0.0
				CHANNELS 3 Zrotation Xrotation Yrotation
				JOINT RightToeBase
				{
					OFFSET 0.0 -5.274969 19.686443
					CHANNELS 3 Zrotation Xrotation Yrotation
					JOINT EndSite
					{
						OFFSET 0.0 0.0 8.734671
					}
				}
			}
		}
	}
	JOINT Spine
	{
		OFFSET 0.0 0.116462 0.0
		CHANNELS 3 Zrotation Xrotation Yrotation
		JOINT Spine1
		{
			OFFSET 0.0 27.368635 0.0
			CHANNELS 3 Zrotation Xrotation Yrotation
			JOINT Neck
			{
				OFFSET 0.0 25.621700 0.0
				CHANNELS 3 Zrotation Xrotation Yrotation
				JOINT Head
				{
					OFFSET 0.0 13.393162 0.0
					CHANNELS 3 Zrotation Xrotation Yrotation
					JOINT EndSite
					{
						OFFSET 0.0 13.393162 0.0
					}
				}
			}
			JOINT LeftShoulder
			{
				OFFSET 0.0 25.621700 0.0
				CHANNELS 3 Zrotation Xrotation Yrotation
				JOINT LeftArm
				{
					OFFSET 17.469341 -0.000059 0.0
					CHANNELS 3 Zrotation Xrotation Yrotation
					JOINT LeftForeArm
					{
						OFFSET 34.938683 -0.000118 0.0
						CHANNELS 3 Zrotation Xrotation Yrotation
						JOINT LeftHand
						{
							OFFSET 32.027126 -0.000118 0.0
							CHANNELS 3 Zrotation Xrotation Yrotation
							JOINT LeftHandThumb
							{
								OFFSET 0.0 0.0 0.0
								CHANNELS 3 Zrotation Xrotation Yrotation
								JOINT EndSite
								{
									OFFSET 0.0 0.0 11.646228
								}
							}
							JOINT L_Wrist_End
							{
								OFFSET 11.646228 -0.000030 0.0
								CHANNELS 3 Zrotation Xrotation Yrotation
							}
						}
					}
				}
			}
			JOINT RightShoulder
			{
				OFFSET 0.0 25.621700 0.0
				CHANNELS 3 Zrotation Xrotation Yrotation
				JOINT RightArm
				{
					OFFSET -17.469341 -0.000059 0.0
					CHANNELS 3 Zrotation Xrotation Yrotation
					JOINT RightForeArm
					{
						OFFSET -34.938683 -0.000118 0.0
						CHANNELS 3 Zrotation Xrotation Yrotation
						JOINT RightHand
						{
							OFFSET -32.027126 -0.000118 0.0
							CHANNELS 3 Zrotation Xrotation Yrotation
							JOINT RightHandThumb
							{
								OFFSET 0.0 0.0 0.0
								CHANNELS 3 Zrotation Xrotation Yrotation
								JOINT EndSite
								{
									OFFSET 0.0 0.0 11.646228
								}
							}
							JOINT R_Wrist_End
							{
								OFFSET -16.013578 -0.000059 0.0
								CHANNELS 3 Zrotation Xrotation Yrotation
							}
						}
					}
				}
			}
		}
	}
}
MOTION
Frames: 14
Frame Time: 0.016667
9.578186 112.653664 -200.290268 -1.283877 4.327720 1.305101 -4.343031 -1.472307 0.290351  -0.0 9.747002 -0.0  1.606326 -13.880004 11.239203  0.0 -1.849300 0.0   -1.048598 -1.599208 -2.892647  -0.0 15.013101 -0.0  7.767263 -17.606876 -3.620497  -0.0 0.456300 -0.0   -1.060118 -4.291355 0.900831  2.951180 6.941790 1.194635  -4.183506 -2.015270 1.161606  -2.678879 -20.655756 -0.612966   -21.556431 3.352365 6.735576  -30.975132 55.299080 -12.060186  -0.0 -0.000100 -29.888802  -9.514985 -23.158039 -0.814291  -0.0 0.0 -0.0   -0.0 0.0 -0.0  14.211377 7.776271 -0.791765  39.534332 31.780254 9.142545  0.000077 -0.000136 39.506302  2.709186 -18.902580 -1.993421  -0.0 0.0 -0.0   -0.0 0.0 -0.0 
9.622854 112.764877 -200.310669 -1.465544 4.347602 1.219883 -4.202413 -1.530922 0.271757  -0.0 9.754500 -0.0  1.680763 -13.661026 11.440905  0.0 -2.357600 0.0   -0.997907 -1.080230 -3.019970  -0.0 13.855602 -0.0  8.914383 -17.034832 -2.958055  -0.0 0.823900 -0.0   -0.791499 -4.522934 1.111191  2.946651 7.142963 1.368238  -4.243929 -2.262918 1.188736  -2.618638 -20.650362 -0.715472   -21.831688 3.079647 6.972286  -31.722355 55.747021 -11.241665  0.0 -0.000100 -29.053904  -9.358454 -22.843880 -0.431615  -0.0 0.0 -0.0   -0.0 0.0 -0.0  14.031427 7.471260 -0.373468  39.186642 32.036949 9.476499  0.000077 -0.000136 39.816204  2.391902 -19.479847 -1.946074  -0.0 0.0 -0.0   -0.0 0.0 -0.0 
9.651844 112.836472 -200.257721 -1.678629 4.364107 1.097484 -4.006665 -1.545236 0.457561  -0.0 9.809700 -0.0  1.709484 -13.672272 11.438876  0.0 -2.385700 0.0   -0.887336 -0.633644 -3.130989  -0.0 12.930202 -0.0  9.500150 -16.447130 -2.442088  -0.0 0.718300 -0.0   -0.554054 -4.759720 1.317488  2.951551 7.398013 1.538728  -4.269849 -2.559957 1.340879  -2.552697 -20.663342 -0.687022   -21.755587 2.600941 7.189884  -32.937347 56.388252 -10.036601  -0.0 -0.000100 -28.643606  -9.560011 -24.801468 -0.895114  -0.0 0.0 -0.0   -0.0 0.0 -0.0  13.707474 7.499175 -0.013121  38.883640 31.904703 10.073933  0.000076 -0.000135 40.233303  2.466222 -19.196877 -2.140563  -0.0 0.0 -0.0   -0.0 0.0 -0.0 
9.633800 112.906288 -200.273697 -1.790676 4.382708 1.117660 -3.881466 -1.543946 0.391697  -0.0 9.710396 -0.0  1.719690 -13.526029 11.496309  0.0 -2.693800 0.0   -0.795060 -0.483029 -2.975090  -0.0 12.582000 -0.0  9.800323 -16.173433 -2.395009  -0.0 0.680500 -0.0   -0.458784 -4.845164 1.454696  2.947392 7.442610 1.663846  -4.070315 -2.763281 1.321562  -2.784662 -20.901739 -0.784641   -21.729753 2.943920 7.446198  -33.519634 55.991367 -9.696940  -0.0 -0.000100 -28.200701  -10.093182 -25.153837 -0.459560  -0.0 0.0 -0.0   -0.0 0.0 -0.0  13.465805 7.023858 0.294442  38.789101 32.120415 10.283741  0.000076 -0.000135 40.701595  2.460901 -19.110380 -2.381013  -0.0 0.0 -0.0   -0.0 0.0 -0.0 
9.635279 112.905701 -200.280487 -1.844421 4.391806 1.170318 -3.827754 -1.549134 0.399788  -0.0 9.703604 -0.0  1.743435 -13.599952 11.421447  0.0 -2.701400 0.0   -0.758576 -0.430029 -3.011757  -0.0 12.475102 -0.0  9.957685 -16.134617 -2.333838  -0.0 0.855400 -0.0   -0.423468 -4.862328 1.519748  2.913815 7.486161 1.723121  -3.951983 -3.025342 1.586953  -2.607704 -20.902555 -0.699327   -21.807281 3.607441 7.633103  -33.701477 55.598801 -9.668232  -0.0 -0.000100 -27.873100  -10.258330 -25.676655 -0.004196  -0.0 0.0 -0.0   -0.0 0.0 -0.0  13.273482 6.550867 0.495914  38.672951 32.104176 10.537701  0.000075 -0.000134 41.318913  2.788690 -18.679825 -2.381692  -0.0 0.0 -0.0   -0.0 0.0 -0.0 
9.652436 112.914566 -200.261261 -1.895107 4.397872 1.286494 -3.786849 -1.546936 0.379573  -0.0 9.703200 -0.0  1.638368 -13.691624 11.392099  0.0 -2.703100 0.0   -0.722536 -0.415090 -3.140685  -0.0 12.462405 -0.0  9.940901 -16.061962 -2.284019  -0.0 0.642600 -0.0   -0.380733 -4.879662 1.562948  2.897053 7.491848 1.760739  -3.755311 -3.339557 1.594611  -2.630546 -20.958397 -0.920978   -21.788078 3.858975 7.716203  -34.045048 55.781178 -9.367946  -0.0 -0.000100 -27.713800  -10.766699 -26.129013 0.149470  -0.0 0.0 -0.0   -0.0 0.0 -0.0  13.083387 6.321702 0.650411  38.488876 31.849184 10.885172  0.000074 -0.000133 41.978699  3.228428 -17.210018 -1.875569  -0.0 0.0 -0.0   -0.0 0.0 -0.0 
9.674918 112.862793 -200.268661 -1.957283 4.381711 1.498378 -3.736176 -1.538445 0.256007  -0.0 9.692800 -0.0  1.768628 -13.843238 11.293944  0.0 -2.549300 0.0   -0.670317 -0.508775 -3.301078  -0.0 12.747302 -0.0  9.968734 -16.216217 -2.300811  -0.0 0.546600 -0.0   -0.333266 -4.858160 1.583303  2.877989 7.538805 1.773070  -3.562882 -3.642985 1.709454  -2.770468 -20.949615 -0.904758   -21.727432 3.801183 7.699326  -34.541214 56.231606 -8.843833  -0.0 -0.000100 -27.607103  -11.944873 -27.402557 -1.566915  -0.0 0.0 -0.0   -0.0 0.0 -0.0  12.933545 6.456780 0.772613  38.190037 31.238682 11.439333  0.000073 -0.000132 42.880203  2.650506 -18.513371 -2.116204  -0.0 0.0 -0.0   -0.0 0.0 -0.0 
9.712191 112.821381 -200.234650 -1.999641 4.340652 1.666124 -3.720556 -1.504773 0.129539  -0.0 9.746900 -0.0  1.742529 -14.045937 11.331141  0.0 -2.888900 0.0   -0.636218 -0.669296 -3.413543  -0.0 13.209500 -0.0  9.942392 -16.355247 -2.386775  -0.0 0.206400 -0.0   -0.307275 -4.836156 1.568917  2.855445 7.599300 1.752376  -3.397889 -3.823828 1.878120  -2.680588 -21.096846 -0.910126   -21.668423 3.733532 7.647458  -34.974350 56.769676 -8.343689  -0.0 -0.000100 -27.663000  -12.219069 -26.139486 -1.564757  -0.0 0.0 -0.0   -0.0 0.0 -0.0  12.859862 6.445831 0.837711  37.909668 30.653772 11.896598  0.000072 -0.000131 43.736504  2.559479 -15.584036 -2.126174  -0.0 0.0 -0.0   -0.0 0.0 -0.0 
9.757450 112.760742 -200.205948 -2.044316 4.223378 2.065330 -3.716555 -1.442329 -0.302519  -0.0 9.881204 -0.0  1.933120 -14.342478 11.358519  0.0 -3.333200 0.0   -0.647114 -1.089755 -3.645041  -0.0 14.509901 -0.0  9.763513 -16.767460 -2.423865  0.0 -0.111100 0.0   -0.265838 -4.788569 1.474224  2.845239 7.868344 1.641738  -3.336321 -4.085074 1.878031  -2.569592 -21.292475 -1.144821   -21.466246 3.582918 7.470362  -35.502159 57.206940 -7.738189  0.0 -0.000100 -28.332302  -11.538589 -24.755222 -0.199372  -0.0 0.0 -0.0   -0.0 0.0 -0.0  12.850538 6.841643 0.796788  37.412415 29.597610 12.608580  0.000071 -0.000129 44.887302  2.138912 -16.437250 -2.664702  -0.0 0.0 -0.0   -0.0 0.0 -0.0 
9.834658 112.721695 -200.169571 -2.042917 4.122107 2.535623 -3.758642 -1.416450 -0.695740  -0.0 10.034899 -0.0  1.925032 -14.447798 11.308661  0.0 -3.548200 0.0   -0.742475 -1.497038 -4.198851  -0.0 15.718594 -0.0  9.898673 -17.112940 -2.282767  0.0 -0.324100 0.0   -0.236637 -4.721941 1.336231  2.818280 8.020559 1.492096  -3.114916 -4.423697 1.697154  -2.903038 -21.329969 -1.469791   -21.371225 3.406576 7.245448  -35.898018 57.720608 -7.332880  -0.0 -0.000100 -28.469801  -11.595923 -24.421759 -0.155314  -0.0 0.0 -0.0   -0.0 0.0 -0.0  12.875438 7.023697 0.694638  37.137936 28.740313 13.087428  0.000070 -0.000128 45.764801  1.685415 -16.309938 -2.729932  -0.0 0.0 -0.0   -0.0 0.0 -0.0 
9.906245 112.667564 -200.149170 -2.012491 4.036729 2.945251 -3.833211 -1.388891 -1.035557  -0.0 10.133700 -0.0  2.227912 -14.573108 11.299931  0.0 -3.805301 0.0   -0.810460 -1.955544 -4.444400  -0.0 16.987000 -0.0  9.483288 -17.437338 -2.556067  0.0 -0.936700 0.0   -0.245839 -4.610642 1.215550  2.741243 8.180311 1.363627  -3.321496 -4.327557 2.057043  -2.223840 -21.526796 -1.222527   -21.193329 3.161440 7.024741  -36.157230 58.311913 -7.073215  -0.0 -0.000100 -28.619101  -11.963384 -23.716457 -0.629577  -0.0 0.0 -0.0   -0.0 0.0 -0.0  12.826788 7.023549 0.557057  37.152943 27.964634 13.377836  0.000069 -0.000127 46.631004  1.463421 -16.050505 -2.825680  -0.0 0.0 -0.0   -0.0 0.0 -0.0 
9.990848 112.637093 -200.108627 -1.957633 3.941132 3.361180 -3.925202 -1.346463 -1.376189  -0.0 10.253000 -0.0  1.916167 -14.695374 11.228651  0.0 -3.782000 0.0   -0.957349 -2.570859 -4.734404  -0.0 18.597998 -0.0  9.623620 -17.928654 -2.674691  0.0 -0.775500 0.0   -0.264347 -4.457837 1.127766  2.638947 8.235122 1.272562  -3.161005 -4.446078 1.953235  -2.174746 -21.559511 -1.549748   -21.019829 3.270964 6.884378  -36.032894 58.135555 -7.407297  -0.0 -0.000100 -28.790705  -12.907861 -22.574102 -0.203688  -0.0 0.0 -0.0   -0.0 0.0 -0.0  12.752347 7.064957 0.409002  37.401390 27.256195 13.450178  0.000068 -0.000126 47.351109  0.891567 -16.775188 -2.619979  -0.0 0.0 -0.0   -0.0 0.0 -0.0 
10.082847 112.606026 -200.064255 -1.882035 3.849859 3.728047 -4.035973 -1.282408 -1.569643  -0.0 10.336500 -0.0  1.847220 -14.805856 11.063602  0.0 -3.777500 0.0   -1.165500 -3.286134 -5.271795  -0.0 20.392597 -0.0  9.565220 -18.151403 -2.658293  0.0 -1.256500 0.0   -0.267092 -4.263041 1.052857  2.545945 8.267829 1.193464  -3.200322 -4.566776 1.898062  -2.086850 -21.592838 -1.703008   -20.805052 3.047681 6.688747  -36.096092 58.696075 -7.497036  0.0 -0.000100 -28.788601  -12.590346 -21.759132 -0.460488  -0.0 0.0 -0.0   -0.0 0.0 -0.0  12.665779 7.090559 0.265441  37.795326 26.521721 13.398433  0.000067 -0.000126 48.047600  0.647883 -17.165503 -2.679349  -0.0 0.0 -0.0   -0.0 0.0 -0.0 
10.185790 112.570831 -199.977600 -1.805511 3.775051 4.078474 -4.159739 -1.156593 -1.996650  -0.0 10.333798 -0.0  1.800210 -14.848954 11.085243  0.0 -3.736500 0.0   -1.393150 -3.975623 -5.837404  -0.0 22.093100 -0.0  9.301443 -18.121965 -2.652303  0.0 -2.193800 0.0   -0.283174 -4.085220 1.008139  2.444484 8.233385 1.148464  -3.083983 -4.695961 1.856413  -2.276969 -21.467690 -1.753126   -20.629234 3.036991 6.577215  -35.929836 58.593418 -7.899487  -0.0 -0.000100 -28.810099  -12.633261 -21.742153 -0.415424  -0.0 0.0 -0.0   -0.0 0.0 -0.0  12.583243 7.240700 0.105244  38.262421 25.846832 13.295388  0.000066 -0.000125 48.655800  0.326777 -17.122171 -2.824835  -0.0 0.0 -0.0   -0.0 0.0 -0.0 
